HIERARCHY
ROOT hips
{
  OFFSET 0 9.313263304106702 1.2146308026317778
  CHANNELS 6 Xposition Yposition Zposition Yrotation Xrotation Zrotation
  JOINT spine
  {
    OFFSET -6.402521e-31 0.5173342420023708 0
    CHANNELS 3 Yrotation Xrotation Zrotation
    JOINT chest
    {
      OFFSET 0 1.130544299341115 0
      CHANNELS 3 Yrotation Xrotation Zrotation
      JOINT upperChest
      {
        OFFSET 0 1.0863555061129995 0
        CHANNELS 3 Yrotation Xrotation Zrotation
        JOINT neck
        {
          OFFSET 0 1.3773706506454462 0
          CHANNELS 3 Yrotation Xrotation Zrotation
          JOINT head
          {
            OFFSET 0 0.7374408940073979 0
            CHANNELS 3 Yrotation Xrotation Zrotation
            JOINT leftEye
            {
              OFFSET 0.25066580148932727 0.6408406698778757 0.15963719178883284
              CHANNELS 3 Yrotation Xrotation Zrotation
              End Site
              {
                OFFSET 0.25066580148932727 0.6408406698778757 0.15963719178883284
              }
            }
            JOINT rightEye
            {
              OFFSET -0.25066576739704244 0.6408406384191823 0.15963727561643756
              CHANNELS 3 Yrotation Xrotation Zrotation
              End Site
              {
                OFFSET -0.25066576739704244 0.6408406384191823 0.15963727561643756
              }
            }
          }
        }
        JOINT leftShoulder
        {
          OFFSET 0.3761817444281191 1.0539491987447769 0
          CHANNELS 3 Yrotation Xrotation Zrotation
          JOINT leftUpperArm
          {
            OFFSET 0.8702844380000002 0 0
            CHANNELS 3 Yrotation Xrotation Zrotation
            JOINT leftLowerArm
            {
              OFFSET 2.198527310000323 0 0
              CHANNELS 3 Yrotation Xrotation Zrotation
              JOINT leftHand
              {
                OFFSET 2.146852313968281 0 0
                CHANNELS 3 Yrotation Xrotation Zrotation
                JOINT leftIndexProximal
                {
                  OFFSET 0.6585177834681599 0.07380250427007962 0.18382213159631788
                  CHANNELS 3 Yrotation Xrotation Zrotation
                  JOINT leftIndexIntermediate
                  {
                    OFFSET 0.3323021288626682 -0.009606893929485771 -0.012820872253340998
                    CHANNELS 3 Yrotation Xrotation Zrotation
                    JOINT leftIndexDistal
                    {
                      OFFSET 0.2045908926985518 -0.0071133989147997845 -0.006828784783599051
                      CHANNELS 3 Yrotation Xrotation Zrotation
                      End Site
                      {
                        OFFSET 0.2045908926985518 -0.0071133989147997845 -0.006828784783599051
                      }
                    }
                  }
                }
                JOINT leftLittleProximal
                {
                  OFFSET 0.6110054258835662 0.07380246363125398 -0.29175655876064077
                  CHANNELS 3 Yrotation Xrotation Zrotation
                  JOINT leftLittleIntermediate
                  {
                    OFFSET 0.3144281999999998 -2.5124724523095665e-9 1.8658118799974588e-7
                    CHANNELS 3 Yrotation Xrotation Zrotation
                    JOINT leftLittleDistal
                    {
                      OFFSET 0.18116185580251631 0.002815456192251098 0.0034826415518049436
                      CHANNELS 3 Yrotation Xrotation Zrotation
                      End Site
                      {
                        OFFSET 0.18116185580251631 0.002815456192251098 0.0034826415518049436
                      }
                    }
                  }
                }
                JOINT leftMiddleProximal
                {
                  OFFSET 0.6637478005691111 0.07380246480054087 0.02046981859247815
                  CHANNELS 3 Yrotation Xrotation Zrotation
                  JOINT leftMiddleIntermediate
                  {
                    OFFSET 0.3705733999999994 -2.9611069152224445e-9 9.35054791928458e-8
                    CHANNELS 3 Yrotation Xrotation Zrotation
                    JOINT leftMiddleDistal
                    {
                      OFFSET 0.22861063500000056 -1.82673876025774e-9 -1.6740782024515788e-7
                      CHANNELS 3 Yrotation Xrotation Zrotation
                      End Site
                      {
                        OFFSET 0.22861063500000056 -1.82673876025774e-9 -1.6740782024515788e-7
                      }
                    }
                  }
                }
                JOINT leftRingProximal
                {
                  OFFSET 0.6561845547265777 0.07380246406440083 -0.13588087571513918
                  CHANNELS 3 Yrotation Xrotation Zrotation
                  JOINT leftRingIntermediate
                  {
                    OFFSET 0.3437531000000005 -2.746796123886952e-9 1.4935781944558357e-7
                    CHANNELS 3 Yrotation Xrotation Zrotation
                    JOINT leftRingDistal
                    {
                      OFFSET 0.1983118991198174 -0.002467117924596085 -0.004538141969590015
                      CHANNELS 3 Yrotation Xrotation Zrotation
                      End Site
                      {
                        OFFSET 0.1983118991198174 -0.002467117924596085 -0.004538141969590015
                      }
                    }
                  }
                }
                JOINT leftThumbProximal
                {
                  OFFSET 0.09767004258864787 -0.14930060425447422 -0.07008212897521154
                  CHANNELS 3 Yrotation Xrotation Zrotation
                  JOINT leftThumbIntermediate
                  {
                    OFFSET 0.36682123028154767 -0.015768465060082004 0.28693641268151077
                    CHANNELS 3 Yrotation Xrotation Zrotation
                    JOINT leftThumbDistal
                    {
                      OFFSET 0.21091084272403915 -0.016756648201192714 0.1933767059105508
                      CHANNELS 3 Yrotation Xrotation Zrotation
                      End Site
                      {
                        OFFSET 0.21091084272403915 -0.016756648201192714 0.1933767059105508
                      }
                    }
                  }
                }
              }
            }
          }
        }
        JOINT rightShoulder
        {
          OFFSET -0.37618174442811925 1.0539491987447769 0
          CHANNELS 3 Yrotation Xrotation Zrotation
          JOINT rightUpperArm
          {
            OFFSET -0.870284438 0 0
            CHANNELS 3 Yrotation Xrotation Zrotation
            JOINT rightLowerArm
            {
              OFFSET -2.1985273100003235 0 0
              CHANNELS 3 Yrotation Xrotation Zrotation
              JOINT rightHand
              {
                OFFSET -2.1468523139682802 0 0
                CHANNELS 3 Yrotation Xrotation Zrotation
                JOINT rightIndexProximal
                {
                  OFFSET -0.6585177834681599 0.07380250427007962 0.18382213159631788
                  CHANNELS 3 Yrotation Xrotation Zrotation
                  JOINT rightIndexIntermediate
                  {
                    OFFSET -0.3323021288626682 -0.009606893929485771 -0.012820872253340998
                    CHANNELS 3 Yrotation Xrotation Zrotation
                    JOINT rightIndexDistal
                    {
                      OFFSET -0.2045908926985518 -0.0071133989147997845 -0.006828784783599051
                      CHANNELS 3 Yrotation Xrotation Zrotation
                      End Site
                      {
                        OFFSET -0.2045908926985518 -0.0071133989147997845 -0.006828784783599051
                      }
                    }
                  }
                }
                JOINT rightLittleProximal
                {
                  OFFSET -0.6110054258835662 0.07380246363125398 -0.29175655876064077
                  CHANNELS 3 Yrotation Xrotation Zrotation
                  JOINT rightLittleIntermediate
                  {
                    OFFSET -0.3144281999999998 -2.5124724523095665e-9 1.8658118799974588e-7
                    CHANNELS 3 Yrotation Xrotation Zrotation
                    JOINT rightLittleDistal
                    {
                      OFFSET -0.18116185580251631 0.002815456192251098 0.0034826415518049436
                      CHANNELS 3 Yrotation Xrotation Zrotation
                      End Site
                      {
                        OFFSET -0.18116185580251631 0.002815456192251098 0.0034826415518049436
                      }
                    }
                  }
                }
                JOINT rightMiddleProximal
                {
                  OFFSET -0.6637478005691111 0.07380246480054087 0.02046981859247815
                  CHANNELS 3 Yrotation Xrotation Zrotation
                  JOINT rightMiddleIntermediate
                  {
                    OFFSET -0.3705733999999994 -2.9611069152224445e-9 9.35054791928458e-8
                    CHANNELS 3 Yrotation Xrotation Zrotation
                    JOINT rightMiddleDistal
                    {
                      OFFSET -0.22861063500000056 -1.82673876025774e-9 -1.6740782024515788e-7
                      CHANNELS 3 Yrotation Xrotation Zrotation
                      End Site
                      {
                        OFFSET -0.22861063500000056 -1.82673876025774e-9 -1.6740782024515788e-7
                      }
                    }
                  }
                }
                JOINT rightRingProximal
                {
                  OFFSET -0.6561845547265777 0.07380246406440083 -0.13588087571513918
                  CHANNELS 3 Yrotation Xrotation Zrotation
                  JOINT rightRingIntermediate
                  {
                    OFFSET -0.3437531000000005 -2.746796123886952e-9 1.4935781944558357e-7
                    CHANNELS 3 Yrotation Xrotation Zrotation
                    JOINT rightRingDistal
                    {
                      OFFSET -0.1983118991198174 -0.002467117924596085 -0.004538141969590015
                      CHANNELS 3 Yrotation Xrotation Zrotation
                      End Site
                      {
                        OFFSET -0.1983118991198174 -0.002467117924596085 -0.004538141969590015
                      }
                    }
                  }
                }
                JOINT rightThumbProximal
                {
                  OFFSET -0.09767004258864787 -0.14930060425447422 -0.07008212897521154
                  CHANNELS 3 Yrotation Xrotation Zrotation
                  JOINT rightThumbIntermediate
                  {
                    OFFSET -0.36682123028154767 -0.015768465060082004 0.28693641268151077
                    CHANNELS 3 Yrotation Xrotation Zrotation
                    JOINT rightThumbDistal
                    {
                      OFFSET -0.21091084272403915 -0.016756648201192714 0.1933767059105508
                      CHANNELS 3 Yrotation Xrotation Zrotation
                      End Site
                      {
                        OFFSET -0.21091084272403915 -0.016756648201192714 0.1933767059105508
                      }
                    }
                  }
                }
              }
            }
          }
        }
      }
    }
  }
  JOINT leftUpperLeg
  {
    OFFSET 0.7715603 -0.3993844658041501 0
    CHANNELS 3 Yrotation Xrotation Zrotation
    JOINT leftLowerLeg
    {
      OFFSET 0 -3.529830000249343 0
      CHANNELS 3 Yrotation Xrotation Zrotation
      JOINT leftFoot
      {
        OFFSET 0 -4.154939295409685 0.004208579085223096
        CHANNELS 3 Yrotation Xrotation Zrotation
        JOINT leftToes
        {
          OFFSET 0 -0.6353414391261847 1.10414981190622
          CHANNELS 3 Yrotation Xrotation Zrotation
          End Site
          {
            OFFSET 0 -0.6015820691747853 1.10414981190622
          }
        }
      }
    }
  }
  JOINT rightUpperLeg
  {
    OFFSET -0.7715603 -0.3993844658041501 0
    CHANNELS 3 Yrotation Xrotation Zrotation
    JOINT rightLowerLeg
    {
      OFFSET 0 -3.529830000249343 0
      CHANNELS 3 Yrotation Xrotation Zrotation
      JOINT rightFoot
      {
        OFFSET 0 -4.154939295409685 0.004208579085223096
        CHANNELS 3 Yrotation Xrotation Zrotation
        JOINT rightToes
        {
          OFFSET 0 -0.6353414391261847 1.10414981190622
          CHANNELS 3 Yrotation Xrotation Zrotation
          End Site
          {
            OFFSET 0 -0.6015820691747853 1.10414981190622
          }
        }
      }
    }
  }
}
MOTION
Frames: 4
Frame Time: 0.03333333333333333
1.1485148559917104 7.674549276178532 1.1158963994333622 -4.123624608561769 2.0404339592937353 -0.02337011173867085 -4.382399812713367 14.037457697126056 3.23097799950612 -2.208079916419863 18.839611429363295 6.019955955346619 0 0 0 2.3997019874516 -1.0134876117634264 -1.2983547126904085 16.311860181556195 -30.38521344387621 -13.07132655804003 0 0 0 0 0 0 -1.3933989914291105 0.7557173499345508 -4.977990196626101 -56.36477819671528 -3.1123934815633114 -30.394888445577582 -120.69049941796258 -0.0000613421826083883 0.00010229131544691714 27.7221421560379 32.565445027789806 10.81442759062728 6.878254345370394 7.782639703769666 -97.1207679999148 6.865621737464415 7.913327449199936 -98.11606136310844 5.224352450009319 2.3893184579642783 -49.076575779671124 6.354965305690865 12.045273705717857 -96.70116140616359 2.4704540915574125 8.156843626459702 -98.63350056402048 5.154350391639979 2.542703955611162 -49.07085257048052 6.87837305764743 7.782153699082318 -97.1048870536297 6.86511116544965 7.907115192457958 -98.13190380441911 5.233738752481041 2.3906478727247524 -49.07654804715408 6.877557510953041 7.788367535514863 -97.12086627445053 6.860790084458701 7.907116054426873 -98.1159467444703 5.231500784675698 2.390310124774327 -49.0765399555891 16.53027069806325 32.73788589447073 8.107627511789754 61.71869413021593 25.476450175563684 0.3210647152860328 27.735583441376637 8.796211037994063 -3.7871288224947715 -9.07035044962657 0.08329306568835938 9.162091217640281 34.37436381609949 2.7759003452465523 34.19613924637416 127.65291030418217 0.00001484456490169416 0.000007348729706616554 -21.27664410904855 13.705989868432832 -39.20644162962449 -6.840442767304579 8.477566650318131 102.08201634910148 -6.827862011626097 8.448912753236877 102.08103345747945 -5.448692560717156 2.597916697609621 51.04679062053184 -6.857096353312805 8.400852593233825 102.07898333535535 -6.937115541953437 8.306080568459727 102.07653581790885 -5.53227248987531 2.5207678818929575 51.049575345006225 -6.8322839602841885 8.515383811959799 102.0832275027099 -6.795405079318022 8.420143606096541 102.08012256450358 -5.476462326400836 2.595883695701371 51.0468658434427 -6.848188631585112 8.441696098078122 102.08077341080735 -6.860742870159498 8.466520370471821 102.08159579053687 -5.443761112033195 2.6141376704371195 51.0461952763044 3.8856737249139734 43.44281773596617 5.570589669180615 -38.009283163985415 56.19799914790334 -13.646214764973998 -13.422153183586435 25.742350966746226 1.400494659104335 -0.6719775401708004 -37.069512426329695 10.533983066342943 1.2178316034243901 60.568999664715825 5.705835214446937 3.865138172287406 -24.526601883169054 -14.651038776713115 4.261322174442916e-7 -0.00003962623378888318 -0.000004268880037476939 2.897555102637527 -35.617281830078014 -15.716112701201153 15.373393304648944 52.77063483048249 2.6396784497574868 -1.1381150387405339 -21.48114498100395 19.253197609507794 4.281167563433376e-7 -0.008189334310479435 0.000006667637076019234
1.0637095841494473 7.862113605846057 1.1364900886799734 -1.0071214134445803 2.6961989317598207 1.46579740794858 -5.533951388424993 12.11944309460404 3.706924316942538 -2.8465614949108846 17.41126315323841 6.876400239385712 0 0 0 2.5775313368744976 -0.9332650619952062 -1.7425607120624693 17.198052386060365 -27.404736482203287 -14.690052758529482 0 0 0 0 0 0 -2.662283333756309 0.8285140644594421 -3.128540643506493 -57.62299425886767 -9.027631908319487 -28.729458233328703 -115.39623833790354 -0.0000680519971981538 0.00011388928249236765 24.910311209605272 31.802201218059423 10.057952932217416 6.878254345370394 7.782639703769666 -97.1207679999148 6.865621737464415 7.913327449199936 -98.11606136310844 5.224352450009319 2.3893184579642783 -49.076575779671124 6.354965305690865 12.045273705717857 -96.70116140616359 2.4704540915574125 8.156843626459702 -98.63350056402048 5.154350391639979 2.542703955611162 -49.07085257048052 6.87837305764743 7.782153699082318 -97.1048870536297 6.86511116544965 7.907115192457958 -98.13190380441911 5.233738752481041 2.3906478727247524 -49.07654804715408 6.877557510953041 7.788367535514863 -97.12086627445053 6.860790084458701 7.907116054426873 -98.1159467444703 5.231500784675698 2.390310124774327 -49.0765399555891 16.53027069806325 32.73788589447073 8.107627511789754 61.71869413021593 25.476450175563684 0.3210647152860328 27.735583441376637 8.796211037994063 -3.7871288224947715 -8.483514088882266 0.09175381231931719 8.497202860585396 33.671194963238165 -2.9311035474795157 30.478824883171004 124.48387163893429 0.000013304209954353606 0.000012223953131233557 -20.480381828687452 13.874761492982932 -37.16220856211063 -6.840442767304579 8.477566650318131 102.08201634910148 -6.827862011626097 8.448912753236877 102.08103345747945 -5.448692560717156 2.597916697609621 51.04679062053184 -6.857096353312805 8.400852593233825 102.07898333535535 -6.937115541953437 8.306080568459727 102.07653581790885 -5.53227248987531 2.5207678818929575 51.049575345006225 -6.8322839602841885 8.515383811959799 102.0832275027099 -6.795405079318022 8.420143606096541 102.08012256450358 -5.476462326400836 2.595883695701371 51.0468658434427 -6.848188631585112 8.441696098078122 102.08077341080735 -6.860742870159498 8.466520370471821 102.08159579053687 -5.443761112033195 2.6141376704371195 51.0461952763044 3.8856737249139734 43.44281773596617 5.570589669180615 -38.009283163985415 56.19799914790334 -13.646214764973998 -13.422153183586435 25.742350966746226 1.400494659104335 0.3702376948755747 -35.19965530133325 8.659137383431208 -3.210451890600326 54.33508382281976 1.8234071180488844 3.1972264262612127 -21.323307492283295 -13.377440596422433 -8.520738560520699e-7 -0.00005800335131264337 0.000006830171664239752 0.6626911217150396 -33.30269512946812 -16.394176741619543 14.15185983557038 48.54231644037843 1.7281792640509608 -2.138330206865939 -19.787733047767965 18.729905852100075 0.0000016032033185127253 -0.007585612950203748 -0.000004244472511740263
0.9661906415765935 8.06827805259011 1.1707608087283576 2.386620763510302 3.2065819616757905 2.7305368437759667 -6.564278659916371 9.82744043254917 4.253316461376312 -3.4240769580044184 15.876566920225915 7.516499038937836 0 0 0 2.635521088181154 -0.6599350895341521 -2.120185549461297 16.991609117607698 -23.966671823111568 -15.153879190039898 0 0 0 0 0 0 -3.8099045680747565 0.8610297797764216 -1.2798597353962178 -59.25686840866287 -15.377795195069668 -27.45877086641065 -107.6875854268514 -0.0000623819441004155 0.00009230709080595936 21.06587836820886 30.49579183618417 9.152228249044834 6.878254345370394 7.782639703769666 -97.1207679999148 6.865621737464415 7.913327449199936 -98.11606136310844 5.224352450009319 2.3893184579642783 -49.076575779671124 6.354965305690865 12.045273705717857 -96.70116140616359 2.4704540915574125 8.156843626459702 -98.63350056402048 5.154350391639979 2.542703955611162 -49.07085257048052 6.87837305764743 7.782153699082318 -97.1048870536297 6.86511116544965 7.907115192457958 -98.13190380441911 5.233738752481041 2.3906478727247524 -49.07654804715408 6.877557510953041 7.788367535514863 -97.12086627445053 6.860790084458701 7.907116054426873 -98.1159467444703 5.231500784675698 2.390310124774327 -49.0765399555891 16.53027069806325 32.73788589447073 8.107627511789754 61.71869413021593 25.476450175563684 0.3210647152860328 27.735583441376637 8.796211037994063 -3.7871288224947715 -7.703232074977176 0.09907724602284769 7.561203635397575 33.33959623620471 -9.217103903981764 28.075494693099238 119.88712181603091 -0.0000019489889488159477 -0.000006281677528756765 -20.12882130380284 15.055467773150818 -33.20647014008369 -6.840442767304579 8.477566650318131 102.08201634910148 -6.827862011626097 8.448912753236877 102.08103345747945 -5.448692560717156 2.597916697609621 51.04679062053184 -6.857096353312805 8.400852593233825 102.07898333535535 -6.937115541953437 8.306080568459727 102.07653581790885 -5.53227248987531 2.5207678818929575 51.049575345006225 -6.8322839602841885 8.515383811959799 102.0832275027099 -6.795405079318022 8.420143606096541 102.08012256450358 -5.476462326400836 2.595883695701371 51.0468658434427 -6.848188631585112 8.441696098078122 102.08077341080735 -6.860742870159498 8.466520370471821 102.08159579053687 -5.443761112033195 2.6141376704371195 51.0461952763044 3.8856737249139734 43.44281773596617 5.570589669180615 -38.009283163985415 56.19799914790334 -13.646214764973998 -13.422153183586435 25.742350966746226 1.400494659104335 1.7003537443610834 -32.55048963504186 7.192680354725982 -7.582269428403108 46.61355001502753 -1.4826835280617203 2.5530256943836944 -17.49606059418699 -12.142575476869862 0.0000015170013747546762 -0.07376362882375655 0.0000028592487823764483 -2.0678189915261376 -30.351901287789673 -16.696333419851918 12.63939125350261 43.325318443732215 0.8736986260681373 -3.16729915248148 -17.651908064335792 17.992600145858102 0.000001015655839095852 -0.005123889611157265 -0.000004990783510191809
0.8523185144771228 8.250676068392666 1.213748807768991 5.769759215570153 3.3668825709681904 3.7808017575475654 -7.268792466862552 7.534042676233672 4.761728831202934 -3.8186051260983036 14.421740831079461 7.821271468113584 0 0 0 2.528572473617522 -0.1759285538287387 -2.3246107624947223 15.772136049850452 -20.430514546789702 -14.685250068403956 0 0 0 0 0 0 -5.011105186890661 0.8781396667130649 0.49947679156270214 -61.630932818694525 -21.668107966343126 -25.748099650794263 -97.04329303247856 -0.00007001410285625526 0.00008301682431738945 16.19924244418249 28.521582841225708 8.250164550317718 6.878254345370394 7.782639703769666 -97.1207679999148 6.865621737464415 7.913327449199936 -98.11606136310844 5.224352450009319 2.3893184579642783 -49.076575779671124 6.354965305690865 12.045273705717857 -96.70116140616359 2.4704540915574125 8.156843626459702 -98.63350056402048 5.154350391639979 2.542703955611162 -49.07085257048052 6.87837305764743 7.782153699082318 -97.1048870536297 6.86511116544965 7.907115192457958 -98.13190380441911 5.233738752481041 2.3906478727247524 -49.07654804715408 6.877557510953041 7.788367535514863 -97.12086627445053 6.860790084458701 7.907116054426873 -98.1159467444703 5.231500784675698 2.390310124774327 -49.0765399555891 16.53027069806325 32.73788589447073 8.107627511789754 61.71869413021593 25.476450175563684 0.3210647152860328 27.735583441376637 8.796211037994063 -3.7871288224947715 -6.7389732155436075 0.11170917535068767 6.320047230600112 33.78863099194935 -15.906029647693254 26.68276295332418 113.27328024372503 0.00001370919583416498 0.000006410833086150634 -19.854598208622544 17.36481971585127 -27.780570854204807 -6.840442767304579 8.477566650318131 102.08201634910148 -6.827862011626097 8.448912753236877 102.08103345747945 -5.448692560717156 2.597916697609621 51.04679062053184 -6.857096353312805 8.400852593233825 102.07898333535535 -6.937115541953437 8.306080568459727 102.07653581790885 -5.53227248987531 2.5207678818929575 51.049575345006225 -6.8322839602841885 8.515383811959799 102.0832275027099 -6.795405079318022 8.420143606096541 102.08012256450358 -5.476462326400836 2.595883695701371 51.0468658434427 -6.848188631585112 8.441696098078122 102.08077341080735 -6.860742870159498 8.466520370471821 102.08159579053687 -5.443761112033195 2.6141376704371195 51.0461952763044 3.8856737249139734 43.44281773596617 5.570589669180615 -38.009283163985415 56.19799914790334 -13.646214764973998 -13.422153183586435 25.742350966746226 1.400494659104335 3.2523032155665623 -29.408777841881275 6.361878324521427 -10.745300578876936 38.41813254872572 -3.4368816613243176 1.2727796283133035 -13.462100768747886 -11.26724757041464 6.690099734901001e-7 -2.006477417399988 -0.0000027507502672177494 -4.769535435319349 -27.246538641094972 -16.88657530943761 9.82269046256065 38.38924829227405 -0.38288217427246934 -2.9310125095570396 -15.744705774975532 17.008341925040842 0.0000012713642594215612 -0.20437834300375113 0.0000037135648287551724
